<svg xmlns="http://www.w3.org/2000/svg" xmlns:xlink="http://www.w3.org/1999/xlink" width="400" height="688" viewBox="0 0 400 688">
  <defs>
    <clipPath id="clip-path">
      <rect id="mask" width="400" height="688" transform="translate(760 277)" fill="rgba(0,0,0,0.5)"/>
    </clipPath>
    <clipPath id="clip-path-2">
      <rect id="Rectangle_24" data-name="Rectangle 24" width="80" height="80" transform="translate(920 317)" fill="#fff"/>
    </clipPath>
  </defs>
  <g id="Mask_Group_5" data-name="Mask Group 5" transform="translate(-760 -277)" clip-path="url(#clip-path)">
    <rect id="card-base" width="400" height="688" transform="translate(760 277)" fill="rgba(0,0,0,0.6)"/>
    <text id="Curabitur_id_tempus_odio_nec_enim._Aliquam_varius_yfhjcs_scelerisque_sem_eget_ffnddn_consectetur_neque_commodo_commodo._Donec_consectetur_odio_vulputate_pharetra_ipsum_non_uweryfwei_aliquetb._Donec_tristique_consectetur_odio_vulputate_dignissim._Ut_s" data-name="Curabitur id tempus odio, nec enim. Aliquam varius yfhjcs scelerisque sem, eget ffnddn consectetur neque commodo commodo. Donec consectetur odio vulputate, pharetra ipsum non, uweryfwei aliquetb. 
Donec tristique, consectetur odio vulputate dignissim. Ut s" transform="translate(820 997)" fill="#fafafa" font-size="20" font-family="Roboto-Regular, Roboto"><tspan x="0" y="21">Curabitur id tempus odio, nec </tspan><tspan x="0" y="53">enim. Aliquam varius yfhjcs </tspan><tspan x="0" y="85">scelerisque sem, eget ffnddn </tspan><tspan x="0" y="117">consectetur neque commodo </tspan><tspan x="0" y="149">commodo. Donec consectetur </tspan><tspan x="0" y="181">odio vulputate, pharetra ipsum </tspan><tspan x="0" y="213">non, uweryfwei aliquetb. </tspan><tspan x="0" y="245">Donec tristique, consectetur </tspan><tspan x="0" y="277">odio vulputate dignissim. Ut </tspan><tspan x="0" y="309">sodales, leo etwef convallis </tspan><tspan x="0" y="341">convallis. Curabitur id tempus </tspan><tspan x="0" y="373">odio, nec dapibus enim. Donec </tspan><tspan x="0" y="405">consectetur odio vulputate, </tspan><tspan x="0" y="437">pharetra ipsum non, uweryfwei </tspan><tspan x="0" y="469">aliquetb. Aliquam varius yfhjcs </tspan><tspan x="0" y="501">scelerisque sem, eget ffnddn.</tspan></text>
    <line id="divider" x2="400" transform="translate(760 925.5)" fill="none" stroke="#666" stroke-width="1"/>
    <g id="up-down-button">
      <g id="Ellipse_1" data-name="Ellipse 1" transform="translate(936 901)" stroke="#bfbfbf" stroke-width="1">
        <circle cx="24" cy="24" r="24" stroke="none"/>
        <circle cx="24" cy="24" r="23.5" fill="none"/>
      </g>
      <g id="up-down-arrow" transform="translate(1 -3)">
        <line id="Line_8" data-name="Line 8" y1="10" x2="10" transform="translate(949.5 921.5)" fill="none" stroke="#fff" stroke-linecap="round" stroke-width="2"/>
        <line id="Line_9" data-name="Line 9" x1="10" y1="10" transform="translate(959.5 921.5)" fill="none" stroke="#fff" stroke-linecap="round" stroke-width="2"/>
      </g>
    </g>
    <text id="Aliquam_varius_scelerisque_sem_eget_consectetur_neque_commodo_commodo._Donec_consectetur_dapibus_enim_pharetra_ipsum_non_aliquet_turpis._Curabitur_idfgb_tempus_odio_necfbc_rt_tyrhh_enim._Ut_sodales_leo_etfhe_convallis_convallis_orci_libero_gravida_v" data-name="Aliquam varius scelerisque sem, eget consectetur neque commodo commodo. Donec consectetur dapibus enim, pharetra ipsum non, aliquet turpis. Curabitur idfgb tempus odio, necfbc rt tyrhh enim. 
Ut sodales, leo etfhe convallis convallis, orci libero gravida v" transform="translate(820 520)" fill="#fafafa" font-size="20" font-family="Roboto-Regular, Roboto"><tspan x="0" y="21">Aliquam varius scelerisque </tspan><tspan x="0" y="53">sem, eget consectetur neque </tspan><tspan x="0" y="85">commodo commodo. Donec </tspan><tspan x="0" y="117">consectetur dapibus enim, </tspan><tspan x="0" y="149">pharetra ipsum non, aliquet </tspan><tspan x="0" y="181">turpis. Curabitur idfgb tempus </tspan><tspan x="0" y="213">odio, necfbc rt tyrhh enim. </tspan><tspan x="0" y="245">Ut sodales, leo etfhe convallis </tspan><tspan x="0" y="277">convallis, orci libero gravida </tspan><tspan x="0" y="309">velit, at feugiat dui massa a </tspan><tspan x="0" y="341">convallis risus.</tspan></text>
    <line id="underline" x2="328" transform="translate(796.5 480.5)" fill="none" stroke="#666" stroke-width="1"/>
    <text id="Strength_Training" data-name="Strength Training" transform="translate(796 408)" fill="#fafafa" font-size="32" font-family="Montserrat-Bold, Montserrat" font-weight="700"><tspan x="15.696" y="31">Strength Training</tspan></text>
    <g id="icon" transform="translate(0 -10)" clip-path="url(#clip-path-2)">
      <g id="weightlifter-white" transform="translate(920.802 317)">
        <path id="Path_30" data-name="Path 30" d="M39.2,29.992a7.824,7.824,0,1,1,7.824-7.824A7.833,7.833,0,0,1,39.2,29.992Zm0-13.04a5.216,5.216,0,1,0,5.216,5.216A5.222,5.222,0,0,0,39.2,16.952Zm0,0" fill="#fff"/>
        <path id="Path_31" data-name="Path 31" d="M48.532,39.565a1.3,1.3,0,0,1-.826-2.314,1.293,1.293,0,0,0,.3-.355L60.457,14.623A1.3,1.3,0,1,0,58.208,13.3L47.291,32.832a1.3,1.3,0,0,1-2.277-1.274L55.94,12.015a3.912,3.912,0,1,1,6.784,3.9L50.275,38.184a3.919,3.919,0,0,1-.918,1.086,1.3,1.3,0,0,1-.825.294Zm0,0" fill="#fff"/>
        <path id="Path_32" data-name="Path 32" d="M11.716,80a3.909,3.909,0,0,1-2.8-6.639l14.235-15.01a1.3,1.3,0,0,1,1.892,1.8L10.8,75.169A1.3,1.3,0,1,0,12.655,77L27.033,61.842a1.3,1.3,0,0,1,1.892,1.8L14.534,78.811A3.93,3.93,0,0,1,11.716,80Zm0,0" fill="#fff"/>
        <path id="Path_33" data-name="Path 33" d="M30.291,39.559a1.3,1.3,0,0,1-.828-.3,3.905,3.905,0,0,1-.9-1.062L16.1,15.9A3.912,3.912,0,0,1,22.881,12L33.816,31.559a1.3,1.3,0,0,1-2.277,1.274L20.613,13.289a1.3,1.3,0,0,0-2.25,1.319l12.468,22.3a1.283,1.283,0,0,0,.288.337,1.3,1.3,0,0,1-.828,2.312Zm0,0" fill="#fff"/>
        <path id="Path_34" data-name="Path 34" d="M58.762,79.546A3.911,3.911,0,0,1,54.9,74.991L57.01,62.33l-4.435-1.971a1.3,1.3,0,0,1,1.06-2.384l5.358,2.382a1.3,1.3,0,0,1,.756,1.406L57.473,75.418a1.3,1.3,0,1,0,2.572.429L62.653,60.2A1.3,1.3,0,0,0,61.9,58.8l-8.031-3.57a1.3,1.3,0,0,1,1.06-2.384l8.031,3.57a3.913,3.913,0,0,1,2.269,4.218L62.618,76.277a3.9,3.9,0,0,1-3.856,3.268Zm0,0" fill="#fff"/>
        <path id="Path_35" data-name="Path 35" d="M30.752,65.7a1.309,1.309,0,0,1-.888-.349l-7.639-7.1a1.3,1.3,0,0,1,.013-1.922l7.777-7.039L28.772,35.953A4.56,4.56,0,0,1,33.3,31.3H45.094a4.541,4.541,0,0,1,4.536,4.536c0,.045,0,.09-.007.135l-1.2,11.616,6.865,2.889a1.3,1.3,0,0,1,.725,1.633l-3.034,8.677a1.3,1.3,0,0,1-1.768.757l-11.46-5.189-8.023,8.92a1.307,1.307,0,0,1-.912.431h-.059Zm-5.71-8.4,5.627,5.234L38.445,53.9a1.308,1.308,0,0,1,1.507-.316l11.031,4.994L53.142,52.4l-6.626-2.789a1.305,1.305,0,0,1-.791-1.337l1.3-12.5A1.93,1.93,0,0,0,45.094,33.9H33.3a1.929,1.929,0,0,0-1.927,1.928l1.3,13.862a1.3,1.3,0,0,1-.423,1.088Zm0,0" fill="#fff"/>
        <path id="Path_36" data-name="Path 36" d="M65.278,13.04H13.117a1.3,1.3,0,0,1,0-2.608H65.278a1.3,1.3,0,1,1,0,2.608Zm0,0" fill="#fff"/>
        <path id="Path_37" data-name="Path 37" d="M13.117,23.472H9.205a1.3,1.3,0,0,1-1.3-1.3V1.3A1.3,1.3,0,0,1,9.205,0h3.911a1.3,1.3,0,0,1,1.3,1.3V22.169A1.3,1.3,0,0,1,13.117,23.472Zm-2.608-2.608h1.3V2.608h-1.3Zm0,0" fill="#fff"/>
        <path id="Path_38" data-name="Path 38" d="M9.205,23.472H5.293a1.3,1.3,0,0,1-1.3-1.3V1.3A1.3,1.3,0,0,1,5.293,0H9.205a1.3,1.3,0,0,1,1.3,1.3V22.169A1.3,1.3,0,0,1,9.205,23.472ZM6.6,20.864H7.9V2.608H6.6Zm0,0" fill="#fff"/>
        <path id="Path_39" data-name="Path 39" d="M73.1,23.472H69.19a1.3,1.3,0,0,1-1.3-1.3V1.3A1.3,1.3,0,0,1,69.19,0H73.1a1.3,1.3,0,0,1,1.3,1.3V22.169A1.3,1.3,0,0,1,73.1,23.472Zm-2.608-2.608h1.3V2.608h-1.3Zm0,0" fill="#fff"/>
        <path id="Path_40" data-name="Path 40" d="M69.19,23.472H65.278a1.3,1.3,0,0,1-1.3-1.3V1.3a1.3,1.3,0,0,1,1.3-1.3H69.19a1.3,1.3,0,0,1,1.3,1.3V22.169A1.3,1.3,0,0,1,69.19,23.472Zm-2.608-2.608h1.3V2.608h-1.3Zm0,0" fill="#fff"/>
        <path id="Path_41" data-name="Path 41" d="M5.293,13.04H1.381a1.3,1.3,0,1,1,0-2.608H5.293a1.3,1.3,0,0,1,0,2.608Zm0,0" fill="#fff"/>
        <path id="Path_42" data-name="Path 42" d="M77.014,13.04H73.1a1.3,1.3,0,0,1,0-2.608h3.912a1.3,1.3,0,1,1,0,2.608Zm0,0" fill="#fff"/>
      </g>
    </g>
  </g>
</svg>
