<svg id="Icons" height="512" viewBox="0 0 74 74" width="512" xmlns="http://www.w3.org/2000/svg"><path d="m37 65.818a8.418 8.418 0 1 1 8.418-8.418 8.428 8.428 0 0 1 -8.418 8.418zm0-14.836a6.418 6.418 0 1 0 6.418 6.418 6.425 6.425 0 0 0 -6.418-6.418z"/><path d="m55.545 72a3.476 3.476 0 0 1 -3.473-3.473v-19.027l-7.795-2.227h-14.555l-7.795 2.227v19.027a3.473 3.473 0 0 1 -6.945 0v-24.481a1 1 0 0 1 .644-.934l12.957-4.946v-5.166h2v5.854a1 1 0 0 1 -.644.934l-12.957 4.947v23.792a1.473 1.473 0 0 0 2.945 0v-19.781a1 1 0 0 1 .725-.961l8.655-2.473a1.007 1.007 0 0 1 .275-.039h14.836a1.007 1.007 0 0 1 .275.039l8.655 2.473a1 1 0 0 1 .725.961v19.781a1.473 1.473 0 0 0 2.945 0v-23.792l-12.956-4.946a1 1 0 0 1 -.644-.934v-32.146a2.709 2.709 0 1 0 -5.418 0 1 1 0 0 1 -2 0 2.709 2.709 0 1 0 -5.418 0v22.291h-2v-22.291a4.707 4.707 0 0 1 8.418-2.898 4.707 4.707 0 0 1 8.418 2.9v31.455l12.957 4.946a1 1 0 0 1 .644.934v24.481a3.476 3.476 0 0 1 -3.474 3.473z"/><path d="m36 6.709h2v18.375h-2z"/></svg>