<?xml version="1.0" encoding="iso-8859-1"?>
<!-- Generator: Adobe Illustrator 19.0.0, SVG Export Plug-In . SVG Version: 6.00 Build 0)  -->
<svg version="1.1" id="Layer_1" xmlns="http://www.w3.org/2000/svg" xmlns:xlink="http://www.w3.org/1999/xlink" x="0px" y="0px"
	 viewBox="0 0 512 512" style="enable-background:new 0 0 512 512;" xml:space="preserve">
<g>
	<g>
		<path d="M322.783,233.739c46.03,0,83.478-37.448,83.478-83.478s-37.448-83.478-83.478-83.478
			c-46.03,0-83.478,37.448-83.478,83.478c0,4.007,0.302,7.943,0.849,11.8l-17.545,17.545l-31.369-31.368
			c-19.527-19.528-51.301-19.527-70.828,0c-9.461,9.461-14.672,22.038-14.672,35.414v100.174c0,18.778,6.236,36.125,16.741,50.087
			h-0.046c-9.22,0-16.696,7.475-16.696,16.696v144.696c0,9.22,7.475,16.696,16.696,16.696H256c4.612,0,8.789-1.871,11.81-4.895
			c6.538,3.135,13.857,4.895,21.581,4.895c27.618,0,50.087-22.469,50.087-50.087V350.609c0-39.628-27.765-72.871-64.857-81.358
			l36.361-36.361C314.84,233.437,318.776,233.739,322.783,233.739z M239.304,478.609H139.13V367.304c10.637,0,89.859,0,100.174,0
			C239.304,380.821,239.304,466.15,239.304,478.609z M306.087,350.609v111.304c0,9.206-7.49,16.696-16.696,16.696
			s-16.696-7.49-16.696-16.696V350.609c0-9.22-7.475-16.696-16.696-16.696h-66.783c-27.618,0-50.087-22.469-50.087-50.087v-46.041
			l33.391,33.391v12.65c0,9.22,7.475,16.696,16.696,16.696H256C283.618,300.522,306.087,322.991,306.087,350.609z M234.411,262.237
			c-6.529,6.528-17.076,6.529-23.607,0c-8.156-8.156-58.505-58.505-66.783-66.783c-6.528-6.529-6.529-17.076,0-23.607
			c6.529-6.528,17.076-6.529,23.607,0l43.174,43.174c6.519,6.52,17.091,6.52,23.611,0l18.758-18.758
			c6.207,9.361,14.246,17.399,23.607,23.607L234.411,262.237z M272.696,150.261c0-27.618,22.469-50.087,50.087-50.087
			s50.087,22.469,50.087,50.087c0,27.618-22.469,50.087-50.087,50.087S272.696,177.879,272.696,150.261z"/>
	</g>
</g>
<g>
	<g>
		<circle cx="322.783" cy="150.261" r="16.696"/>
	</g>
</g>
<g>
	<g>
		<path d="M172.522,0c-36.824,0-66.783,29.959-66.783,66.783c0,36.824,29.959,66.783,66.783,66.783
			c36.824,0,66.783-29.959,66.783-66.783C239.304,29.959,209.346,0,172.522,0z M172.522,100.174
			c-18.412,0-33.391-14.979-33.391-33.391c0-18.412,14.979-33.391,33.391-33.391c18.412,0,33.391,14.979,33.391,33.391
			C205.913,85.195,190.934,100.174,172.522,100.174z"/>
	</g>
</g>
<g>
</g>
<g>
</g>
<g>
</g>
<g>
</g>
<g>
</g>
<g>
</g>
<g>
</g>
<g>
</g>
<g>
</g>
<g>
</g>
<g>
</g>
<g>
</g>
<g>
</g>
<g>
</g>
<g>
</g>
</svg>
