<svg xmlns="http://www.w3.org/2000/svg" viewBox="0 0 512 512" fill="#666666"><path d="M125.9 235c4.5-34.1 34.6-65 89.8-91.8l9.9-4.8 -40.7-75.1 -9.2 4.7C59.1 127 0 210.5 0 316.1c0 36.4 11.6 67.9 34.4 93.6 23.1 26 51.2 39.2 83.5 39.2 29 0 53.5-10.3 73-30.7 19.4-20.2 29.2-45.3 29.2-74.6 0-27.7-9.9-52.4-29.5-73.4C173.3 251.6 151.6 239.8 125.9 235zM175.6 403.5c-15.5 16.2-34.4 24.1-57.7 24.1 -26.3 0-48.4-10.5-67.6-32.1 -19.5-21.9-29-47.9-29-79.5 0-48.4 13.6-92.1 40.5-129.9 25.6-36 64.1-67.9 114.4-94.7l20.4 37.6c-61.3 32.1-92.4 70.8-92.4 114.9v9.5l9.4 1.1c25.3 2.9 45.4 12.7 61.6 30 16 17.2 23.8 36.5 23.8 58.9C198.9 367.5 191.2 387.1 175.6 403.5z"/><path d="M413.2 235.1c4.4-34.1 34.3-65 89-91.9l9.8-4.8 -39.7-75.2 -9.3 4.7C345.9 127 286.5 210.5 286.5 316.1c0 36.5 11.7 68 34.8 93.6 23.4 26 51.6 39.1 83.8 39.1 29 0 53.5-10.3 72.7-30.7 19.1-20.2 28.7-45.3 28.7-74.6 0-27.7-9.9-52.4-29.5-73.4C459.9 251.7 438.4 239.9 413.2 235.1zM462.4 403.6c-15.3 16.2-34 24.1-57.3 24.1 -26.3 0-48.6-10.5-68.1-32.1 -19.8-21.9-29.4-47.9-29.4-79.4 0-48.4 13.7-92.1 40.7-129.9 25.8-36 64.4-67.9 114.9-94.7l19.8 37.6c-60.9 32.1-91.7 70.8-91.7 114.9v9.4l9.4 1.1c24.8 2.9 44.7 12.7 60.8 30 16 17.2 23.8 36.5 23.8 58.9C485.4 367.5 477.9 387.2 462.4 403.6z"/></svg>