<svg xmlns="http://www.w3.org/2000/svg" viewBox="0 0 512 512" fill="#666666"><path d="M477.6 102.4c-23.1-26-51.2-39.2-83.5-39.2 -29 0-53.5 10.3-73 30.7 -19.4 20.2-29.2 45.3-29.2 74.6 0 27.7 9.9 52.4 29.5 73.4 17.2 18.5 39 30.3 64.7 35.1 -4.5 34.1-34.6 65-89.8 91.8l-9.9 4.8 40.7 75.1 9.2-4.7C452.9 385 512 301.5 512 195.9 512 159.5 500.4 128 477.6 102.4zM335.9 420.5l-20.4-37.6c61.3-32.1 92.4-70.8 92.4-114.9v-9.5l-9.4-1.1c-25.3-2.9-45.4-12.7-61.6-30 -16-17.2-23.8-36.5-23.8-58.9 0-24 7.6-43.6 23.3-60 15.5-16.2 34.4-24.1 57.7-24.1 26.3 0 48.4 10.5 67.6 32.1 19.5 21.9 29 47.9 29 79.5 0 48.4-13.6 92.1-40.5 129.9C424.7 361.8 386.2 393.7 335.9 420.5z"/><path d="M190.6 102.3c-23.4-26-51.6-39.1-83.8-39.1 -29 0-53.5 10.3-72.7 30.7 -19.1 20.2-28.7 45.3-28.7 74.6 0 27.7 9.9 52.4 29.5 73.4 17.2 18.5 38.7 30.2 63.9 35.1 -4.4 34.1-34.3 65-89 91.9L0 373.6l39.7 75.2 9.3-4.7c117.1-59.1 176.5-142.6 176.5-248.2C225.5 159.4 213.7 127.9 190.6 102.3zM48.7 420.5l-19.8-37.6c60.9-32.1 91.7-70.8 91.7-114.9v-9.4l-9.4-1.1c-24.8-2.9-44.7-12.7-60.8-30C34.4 210.3 26.6 191 26.6 168.5c0-24 7.5-43.7 23-60.1 15.3-16.2 34-24.1 57.3-24.1 26.3 0 48.6 10.5 68.1 32.1 19.8 21.9 29.4 47.9 29.4 79.4 0 48.4-13.7 92.1-40.7 129.9C137.8 361.8 99.2 393.6 48.7 420.5z"/></svg>