<svg id="Icons" height="512" viewBox="0 0 74 74" width="512" xmlns="http://www.w3.org/2000/svg"><path d="m59.159 72c-.112 0-.225 0-.338-.012a4.976 4.976 0 0 1 -3.521-1.835l-11.064-13.723a2.63 2.63 0 0 0 -1.481-.916l-8.636-1.89-1.486 5.823a6.626 6.626 0 0 1 -3.515 4.322l-13.192 6.455a5.133 5.133 0 1 1 -4.51-9.217l11.855-5.34 4.066-14.03 1.922.557-4.2 14.474a1 1 0 0 1 -.55.633l-12.271 5.529a3.133 3.133 0 1 0 2.773 5.615l13.228-6.472a4.629 4.629 0 0 0 2.456-3.02l1.725-6.76a1 1 0 0 1 1.183-.73l9.58 2.1a4.635 4.635 0 0 1 2.61 1.615l11.064 13.722a2.96 2.96 0 0 0 4.632-3.687l-12.226-15.555a3.29 3.29 0 0 0 -1.71-1.133l-5.668-1.546a1 1 0 0 1 -.707-1.208l3.984-15.864a1 1 0 0 1 .938-.756l8.524-.267a4.546 4.546 0 0 0 4.013-2.726l4.745-10.946a2.739 2.739 0 0 0 -4.992-2.255l-3.656 7.78a3.632 3.632 0 0 1 -2.911 2.06l-4.907.491a3.577 3.577 0 0 1 -1.055-.05l-9.981-1.958a9.917 9.917 0 0 0 -2.78-.148l-10.251.9a5.045 5.045 0 0 0 -3.685 2.115l-5.981 8.447a2.861 2.861 0 1 0 4.736 3.21l4.895-7.549a1 1 0 0 1 .761-.453l8.646-.676a1 1 0 0 1 1.038 1.274l-2.889 9.964-1.922-.557 2.486-8.577-6.712.525-4.622 7.135a4.861 4.861 0 1 1 -8.047-5.454l5.981-8.447a7.043 7.043 0 0 1 5.144-2.952l10.25-.9a11.89 11.89 0 0 1 3.34.178l9.981 1.958a1.553 1.553 0 0 0 .471.022l4.907-.491a1.621 1.621 0 0 0 1.3-.919l3.656-7.78a4.74 4.74 0 0 1 8.639 3.9l-4.748 10.949a6.557 6.557 0 0 1 -5.786 3.929l-7.77.243-3.562 14.181 4.722 1.288a5.305 5.305 0 0 1 2.757 1.827l12.227 15.553a4.96 4.96 0 0 1 -3.903 8.025z"/><path d="m42.937 17.238a7.619 7.619 0 1 1 7.6-7.6 7.628 7.628 0 0 1 -7.6 7.6zm0-13.238a5.619 5.619 0 1 0 5.6 5.639 5.646 5.646 0 0 0 -5.6-5.639z"/></svg>