<?xml version="1.0"?>
<svg xmlns="http://www.w3.org/2000/svg" id="Icons" viewBox="0 0 74 74" width="512" height="512"><path d="M50.426,72A4.931,4.931,0,0,1,45.5,67.075V54.334l-20.874-2.61a1,1,0,0,1-.875-1.035l.969-22.681a7.793,7.793,0,0,1,7.794-7.752H50v2H32.514a5.8,5.8,0,0,0-5.795,5.795l-.93,21.8,20.835,2.6a1,1,0,0,1,.876.992V67.075a2.926,2.926,0,0,0,5.851,0v-17.6a3.593,3.593,0,0,0-3.272-3.559l-11.513-.967a1,1,0,0,1-.917-1V28.777a1,1,0,0,1,.975-1L61.759,27.2a2.473,2.473,0,0,0-.062-4.946H54v-2h7.7a4.473,4.473,0,0,1,.111,8.945l-22.159.552V43.032l10.6.89a5.605,5.605,0,0,1,5.105,5.552v17.6A4.931,4.931,0,0,1,50.426,72Z"/><path d="M26.938,72H13.052a5.222,5.222,0,0,1,0-10.444H23.064l.688-10.887,2,.126L25,62.619a1,1,0,0,1-1,.937H13.052a3.222,3.222,0,0,0,0,6.444H26.938a4.041,4.041,0,0,0,4.037-3.661L32.36,51.771l1.991.189L32.966,66.531A6.035,6.035,0,0,1,26.938,72Z"/><path d="M36.01,17.554a7.777,7.777,0,1,1,7.777-7.777A7.786,7.786,0,0,1,36.01,17.554ZM36.01,4a5.777,5.777,0,1,0,5.777,5.777A5.783,5.783,0,0,0,36.01,4Z"/></svg>
