<?xml version="1.0"?>
<svg fill="#ffffff" xmlns="http://www.w3.org/2000/svg" id="Icons" viewBox="0 0 74 74" width="512" height="512"><path d="M41.167,72.162A5.173,5.173,0,0,1,36,67V57.853a5.164,5.164,0,0,1-8.333-4.08V27.162H25v-2h3.667a1,1,0,0,1,1,1V53.773a3.167,3.167,0,1,0,6.333,0V45.05a1,1,0,0,1,2,0V67a3.167,3.167,0,1,0,6.333,0V26.162a1,1,0,0,1,1-1H60.857a2.833,2.833,0,0,0,0-5.667H13.143a2.833,2.833,0,0,0,0,5.667H21v2H13.143a4.833,4.833,0,0,1,0-9.667H60.857a4.833,4.833,0,0,1,0,9.667H46.333V67A5.172,5.172,0,0,1,41.167,72.162Z"/><path d="M36.99,16.183A7.172,7.172,0,1,1,44.182,9.01,7.18,7.18,0,0,1,36.99,16.183Zm0-12.344A5.172,5.172,0,1,0,42.182,9.01,5.178,5.178,0,0,0,36.99,3.838Z"/></svg>
